<svg width="219" height="125" viewBox="0 0 219 125" fill="none" xmlns="http://www.w3.org/2000/svg">
<path d="M208.5 89.5C208.5 94.3325 207.595 98.586 206.239 101.538C204.783 104.706 203.278 105.5 202.5 105.5C201.722 105.5 200.217 104.706 198.761 101.538C197.405 98.586 196.5 94.3325 196.5 89.5C196.5 84.6675 197.405 80.414 198.761 77.4623C200.217 74.2942 201.722 73.5 202.5 73.5C203.278 73.5 204.783 74.2942 206.239 77.4623C207.595 80.414 208.5 84.6675 208.5 89.5Z" fill="white" stroke="black" stroke-width="5"/>
<mask id="path-2-inside-1_115_560" fill="white">
<path d="M11 71H203V108H11V71Z"/>
</mask>
<path d="M11 71H203V108H11V71Z" fill="white"/>
<path d="M11 71V66H6V71H11ZM11 108H6V113H11V108ZM11 76H203V66H11V76ZM203 103H11V113H203V103ZM16 108V71H6V108H16Z" fill="black" mask="url(#path-2-inside-1_115_560)"/>
<ellipse cx="16.5" cy="89.5" rx="8.5" ry="18.5" fill="black"/>
<ellipse cx="10.5" cy="89.5" rx="8.5" ry="18.5" fill="black"/>
<path d="M149.5 89.5C149.5 94.3325 148.595 98.586 147.239 101.538C145.783 104.706 144.278 105.5 143.5 105.5C142.722 105.5 141.217 104.706 139.761 101.538C138.405 98.586 137.5 94.3325 137.5 89.5C137.5 84.6675 138.405 80.414 139.761 77.4623C141.217 74.2942 142.722 73.5 143.5 73.5C144.278 73.5 145.783 74.2942 147.239 77.4623C148.595 80.414 149.5 84.6675 149.5 89.5Z" fill="white" stroke="black" stroke-width="5"/>
<rect x="117" y="76" width="27" height="27" fill="white"/>
<rect x="11" y="71" width="7" height="37" fill="black"/>
<ellipse cx="13.5" cy="89.5" rx="6.5" ry="13.5" fill="#E90E00"/>
<path d="M10.5162 8C-10.4838 32.5 21.0162 38 4.01624 66.5" stroke="black" stroke-width="5"/>
<path d="M24.5162 2C3.51624 26.5 35.0162 32 18.0162 60.5" stroke="black" stroke-width="5"/>
<path d="M216.5 106.5C216.5 111.332 215.595 115.586 214.239 118.538C212.783 121.706 211.278 122.5 210.5 122.5C209.722 122.5 208.217 121.706 206.761 118.538C205.405 115.586 204.5 111.332 204.5 106.5C204.5 101.668 205.405 97.414 206.761 94.4623C208.217 91.2942 209.722 90.5 210.5 90.5C211.278 90.5 212.783 91.2942 214.239 94.4623C215.595 97.414 216.5 101.668 216.5 106.5Z" fill="white" stroke="black" stroke-width="5"/>
<mask id="path-13-inside-2_115_560" fill="white">
<path d="M19 88H211V125H19V88Z"/>
</mask>
<path d="M19 88H211V125H19V88Z" fill="white"/>
<path d="M19 88V83H14V88H19ZM19 125H14V130H19V125ZM19 93H211V83H19V93ZM211 120H19V130H211V120ZM24 125V88H14V125H24Z" fill="black" mask="url(#path-13-inside-2_115_560)"/>
<ellipse cx="24.5" cy="106.5" rx="8.5" ry="18.5" fill="black"/>
<ellipse cx="18.5" cy="106.5" rx="8.5" ry="18.5" fill="black"/>
<path d="M157.5 106.5C157.5 111.332 156.595 115.586 155.239 118.538C153.783 121.706 152.278 122.5 151.5 122.5C150.722 122.5 149.217 121.706 147.761 118.538C146.405 115.586 145.5 111.332 145.5 106.5C145.5 101.668 146.405 97.414 147.761 94.4623C149.217 91.2942 150.722 90.5 151.5 90.5C152.278 90.5 153.783 91.2942 155.239 94.4623C156.595 97.414 157.5 101.668 157.5 106.5Z" fill="white" stroke="black" stroke-width="5"/>
<rect x="125" y="93" width="27" height="27" fill="white"/>
<rect x="19" y="88" width="7" height="37" fill="black"/>
<ellipse cx="21.5" cy="106.5" rx="6.5" ry="13.5" fill="#E90E00"/>
<path d="M36.5162 23C15.5162 47.5 47.0162 53 30.0162 81.5" stroke="black" stroke-width="5"/>
</svg>
