<svg width="227" height="143" viewBox="0 0 227 143" fill="none" xmlns="http://www.w3.org/2000/svg">
<path d="M208.5 90.5C208.5 95.3325 207.595 99.586 206.239 102.538C204.783 105.706 203.278 106.5 202.5 106.5C201.722 106.5 200.217 105.706 198.761 102.538C197.405 99.586 196.5 95.3325 196.5 90.5C196.5 85.6675 197.405 81.414 198.761 78.4623C200.217 75.2942 201.722 74.5 202.5 74.5C203.278 74.5 204.783 75.2942 206.239 78.4623C207.595 81.414 208.5 85.6675 208.5 90.5Z" fill="white" stroke="black" stroke-width="5"/>
<mask id="path-2-inside-1_115_561" fill="white">
<path d="M11 72H203V109H11V72Z"/>
</mask>
<path d="M11 72H203V109H11V72Z" fill="white"/>
<path d="M11 72V67H6V72H11ZM11 109H6V114H11V109ZM11 77H203V67H11V77ZM203 104H11V114H203V104ZM16 109V72H6V109H16Z" fill="black" mask="url(#path-2-inside-1_115_561)"/>
<ellipse cx="16.5" cy="90.5" rx="8.5" ry="18.5" fill="black"/>
<ellipse cx="10.5" cy="90.5" rx="8.5" ry="18.5" fill="black"/>
<path d="M149.5 90.5C149.5 95.3325 148.595 99.586 147.239 102.538C145.783 105.706 144.278 106.5 143.5 106.5C142.722 106.5 141.217 105.706 139.761 102.538C138.405 99.586 137.5 95.3325 137.5 90.5C137.5 85.6675 138.405 81.414 139.761 78.4623C141.217 75.2942 142.722 74.5 143.5 74.5C144.278 74.5 145.783 75.2942 147.239 78.4623C148.595 81.414 149.5 85.6675 149.5 90.5Z" fill="white" stroke="black" stroke-width="5"/>
<rect x="117" y="77" width="27" height="27" fill="white"/>
<rect x="11" y="72" width="7" height="37" fill="black"/>
<ellipse cx="13.5" cy="90.5" rx="6.5" ry="13.5" fill="#E90E00"/>
<path d="M10.5162 9C-10.4838 33.5 21.0162 39 4.01624 67.5" stroke="black" stroke-width="5"/>
<path d="M22.5162 2C1.51624 26.5 33.0162 32 16.0162 60.5" stroke="black" stroke-width="5"/>
<path d="M216.5 107.5C216.5 112.332 215.595 116.586 214.239 119.538C212.783 122.706 211.278 123.5 210.5 123.5C209.722 123.5 208.217 122.706 206.761 119.538C205.405 116.586 204.5 112.332 204.5 107.5C204.5 102.668 205.405 98.414 206.761 95.4623C208.217 92.2942 209.722 91.5 210.5 91.5C211.278 91.5 212.783 92.2942 214.239 95.4623C215.595 98.414 216.5 102.668 216.5 107.5Z" fill="white" stroke="black" stroke-width="5"/>
<mask id="path-13-inside-2_115_561" fill="white">
<path d="M19 89H211V126H19V89Z"/>
</mask>
<path d="M19 89H211V126H19V89Z" fill="white"/>
<path d="M19 89V84H14V89H19ZM19 126H14V131H19V126ZM19 94H211V84H19V94ZM211 121H19V131H211V121ZM24 126V89H14V126H24Z" fill="black" mask="url(#path-13-inside-2_115_561)"/>
<ellipse cx="24.5" cy="107.5" rx="8.5" ry="18.5" fill="black"/>
<ellipse cx="18.5" cy="107.5" rx="8.5" ry="18.5" fill="black"/>
<path d="M157.5 107.5C157.5 112.332 156.595 116.586 155.239 119.538C153.783 122.706 152.278 123.5 151.5 123.5C150.722 123.5 149.217 122.706 147.761 119.538C146.405 116.586 145.5 112.332 145.5 107.5C145.5 102.668 146.405 98.414 147.761 95.4623C149.217 92.2942 150.722 91.5 151.5 91.5C152.278 91.5 153.783 92.2942 155.239 95.4623C156.595 98.414 157.5 102.668 157.5 107.5Z" fill="white" stroke="black" stroke-width="5"/>
<rect x="125" y="94" width="27" height="27" fill="white"/>
<rect x="19" y="89" width="7" height="37" fill="black"/>
<ellipse cx="21.5" cy="107.5" rx="6.5" ry="13.5" fill="#E90E00"/>
<path d="M35.5162 19C14.5162 43.5 46.0162 49 29.0162 77.5" stroke="black" stroke-width="5"/>
<path d="M28.5162 57C7.51624 81.5 39.0162 87 22.0162 115.5" stroke="black" stroke-width="5"/>
<path d="M224.5 124.5C224.5 129.332 223.595 133.586 222.239 136.538C220.783 139.706 219.278 140.5 218.5 140.5C217.722 140.5 216.217 139.706 214.761 136.538C213.405 133.586 212.5 129.332 212.5 124.5C212.5 119.668 213.405 115.414 214.761 112.462C216.217 109.294 217.722 108.5 218.5 108.5C219.278 108.5 220.783 109.294 222.239 112.462C223.595 115.414 224.5 119.668 224.5 124.5Z" fill="white" stroke="black" stroke-width="5"/>
<mask id="path-24-inside-3_115_561" fill="white">
<path d="M27 106H219V143H27V106Z"/>
</mask>
<path d="M27 106H219V143H27V106Z" fill="white"/>
<path d="M27 106V101H22V106H27ZM27 143H22V148H27V143ZM27 111H219V101H27V111ZM219 138H27V148H219V138ZM32 143V106H22V143H32Z" fill="black" mask="url(#path-24-inside-3_115_561)"/>
<ellipse cx="32.5" cy="124.5" rx="8.5" ry="18.5" fill="black"/>
<ellipse cx="26.5" cy="124.5" rx="8.5" ry="18.5" fill="black"/>
<path d="M165.5 124.5C165.5 129.332 164.595 133.586 163.239 136.538C161.783 139.706 160.278 140.5 159.5 140.5C158.722 140.5 157.217 139.706 155.761 136.538C154.405 133.586 153.5 129.332 153.5 124.5C153.5 119.668 154.405 115.414 155.761 112.462C157.217 109.294 158.722 108.5 159.5 108.5C160.278 108.5 161.783 109.294 163.239 112.462C164.595 115.414 165.5 119.668 165.5 124.5Z" fill="white" stroke="black" stroke-width="5"/>
<rect x="133" y="111" width="27" height="27" fill="white"/>
<rect x="27" y="106" width="7" height="37" fill="black"/>
<ellipse cx="29.5" cy="124.5" rx="6.5" ry="13.5" fill="#E90E00"/>
</svg>
